<svg id="logo" viewBox="0 0 96 16" xmlns="http://www.w3.org/2000/svg">
    <path d="M0.179199 16V2.39307H4.62939V16H0.179199ZM5.34717 5.11035V2.39307H10.4331L13.1504 5.11035V9.77588L10.4331 12.5034H5.34717V9.77588H8.63867V5.11035H5.34717ZM32.2432 2.39307H37.0625L40.7129 8.44287L43.584 3.521V10.3706L40.313 16L32.2432 2.39307ZM44.2505 16V2.39307H48.7827V16H44.2505ZM32.2329 16V3.6543L36.4678 10.7603V16H32.2329Z" fill="#FA0000"/>
    <path d="M16.8828 6.73047L16.8726 6.72021V4.68994L19.1899 2.39307H21.2305V5.95117L24.8193 10.1143L27.9058 7.71484L30.1411 10.2988L27.106 12.77L29.895 16H24.8809L16.8828 6.73047ZM17.7852 16L15.4985 13.7544V10.4731L17.457 8.45312L19.5693 10.9141V13.3853H21.7329L23.5171 15.4976L22.9326 16H17.7852ZM27.9468 4.66943V6.47412H23.6914V5.11035H21.9482V2.39307H25.6704L27.9468 4.66943ZM61.0156 0.95752V16H56.4834V0.95752H61.0156ZM63.7637 7.82764H61.7334V6.45361L63.0664 5.11035H65.5479L68.2754 7.82764V13.2827L65.5479 16H61.7334V13.457H63.7637V7.82764ZM77.4014 16V7.82764H70.9517V6.47412L72.3154 5.11035H79.1138L81.8311 7.82764V16H77.4014ZM76.6836 9.66309V11.5498H74.3457V13.457H76.6836V14.6567L75.3301 16H71.8643L70.0391 14.2056V11.478L71.8643 9.66309H76.6836ZM95.5918 5.11035V16H91.0596V5.11035H95.5918ZM88.3218 13.2827H90.3418V14.6362L89.0293 16H86.5171L83.7896 13.2827V5.11035H88.3218V13.2827Z" fill="#0A05FF"/>
</svg>
