<svg version="1.0" xmlns="http://www.w3.org/2000/svg">
    <symbol id="moon" viewBox="0 0 31 31" fill="currentColor">
        <path d="M15.74 3.545c.275.46.227 1.044-.119 1.453a10.112 10.112 0 0 0-2.393 6.55c0 5.61 4.548 10.157 10.158 10.157.729 0 1.439-.076 2.122-.221a1.254 1.254 0 0 1 1.219 2.035 12.641 12.641 0 0 1-9.681 4.498c-6.995 0-12.666-5.67-12.666-12.665 0-6.09 4.296-11.173 10.023-12.39a1.254 1.254 0 0 1 1.336.583Zm-4.072 3.188a10.152 10.152 0 0 0-4.78 8.619c0 5.61 4.548 10.157 10.158 10.157 1.85 0 3.583-.494 5.077-1.358-6.402-.633-11.403-6.034-11.403-12.603 0-1.704.337-3.33.947-4.815Z"/>
    </symbol>

    <symbol id="sun" viewBox="0 0 27 27" fill="currentColor">
        <path d="M13.1861 0.757385C13.8788 0.757385 14.4403 1.31888 14.4403 2.01152V4.51978C14.4403 5.21241 13.8788 5.77391 13.1861 5.77391C12.4935 5.77391 11.932 5.21241 11.932 4.51978V2.01152C11.932 1.31888 12.4935 0.757385 13.1861 0.757385ZM22.0542 4.43065C22.5439 4.92042 22.5439 5.71449 22.0542 6.20426L20.2806 7.97786C19.7908 8.46763 18.9967 8.46763 18.507 7.97786C18.0172 7.4881 18.0172 6.69402 18.507 6.20426L20.2806 4.43065C20.7703 3.94088 21.5644 3.94088 22.0542 4.43065ZM4.3181 4.43065C4.80787 3.94088 5.60194 3.94088 6.09171 4.43065L7.86531 6.20426C8.35508 6.69402 8.35508 7.4881 7.86531 7.97786C7.37555 8.46763 6.58147 8.46763 6.09171 7.97786L4.3181 6.20426C3.82833 5.71449 3.82833 4.92042 4.3181 4.43065ZM13.1861 10.1634C11.4545 10.1634 10.0508 11.5671 10.0508 13.2987C10.0508 15.0303 11.4545 16.434 13.1861 16.434C14.9177 16.434 16.3215 15.0303 16.3215 13.2987C16.3215 11.5671 14.9177 10.1634 13.1861 10.1634ZM7.54255 13.2987C7.54255 10.1818 10.0693 7.6551 13.1861 7.6551C16.303 7.6551 18.8297 10.1818 18.8297 13.2987C18.8297 16.4156 16.303 18.9423 13.1861 18.9423C10.0693 18.9423 7.54255 16.4156 7.54255 13.2987ZM0.644836 13.2987C0.644836 12.6061 1.20633 12.0446 1.89897 12.0446H4.40723C5.09986 12.0446 5.66136 12.6061 5.66136 13.2987C5.66136 13.9913 5.09986 14.5528 4.40723 14.5528H1.89897C1.20633 14.5528 0.644836 13.9913 0.644836 13.2987ZM20.7109 13.2987C20.7109 12.6061 21.2724 12.0446 21.9651 12.0446H24.4733C25.1659 12.0446 25.7274 12.6061 25.7274 13.2987C25.7274 13.9913 25.1659 14.5528 24.4733 14.5528H21.9651C21.2724 14.5528 20.7109 13.9913 20.7109 13.2987ZM7.86532 18.6195C8.35508 19.1093 8.35508 19.9034 7.86532 20.3931L6.09171 22.1667C5.60194 22.6565 4.80787 22.6565 4.3181 22.1667C3.82833 21.677 3.82833 20.8829 4.3181 20.3931L6.09171 18.6195C6.58148 18.1297 7.37555 18.1297 7.86532 18.6195ZM18.507 18.6195C18.9967 18.1297 19.7908 18.1297 20.2806 18.6195L22.0542 20.3931C22.5439 20.8829 22.5439 21.677 22.0542 22.1667C21.5644 22.6565 20.7703 22.6565 20.2806 22.1667L18.507 20.3931C18.0172 19.9034 18.0172 19.1093 18.507 18.6195ZM13.1861 20.8235C13.8788 20.8235 14.4403 21.385 14.4403 22.0776V24.5859C14.4403 25.2785 13.8788 25.84 13.1861 25.84C12.4935 25.84 11.932 25.2785 11.932 24.5859V22.0776C11.932 21.385 12.4935 20.8235 13.1861 20.8235Z"/>
    </symbol>

    <symbol id="hamburger" viewBox="0 0 25 25">
        <path d="M4 6H20M4 10H20M4 14H20M4 18H20" stroke="currentColor" stroke-width="2" stroke-linecap="round" stroke-linejoin="round"/>
    </symbol>

    <symbol id="logout" viewBox="0 0 22 26" fill="currentColor">
        <path d="M1.378 3.987A3.762 3.762 0 0 1 5.141.225h12.54a3.762 3.762 0 0 1 3.763 3.762v17.558a3.762 3.762 0 0 1-3.762 3.762H5.14a3.762 3.762 0 0 1-3.763-3.762 1.254 1.254 0 0 1 2.508 0c0 .693.562 1.254 1.255 1.254h12.54c.694 0 1.255-.561 1.255-1.254V3.987c0-.692-.561-1.254-1.254-1.254H5.14c-.693 0-1.255.562-1.255 1.254a1.254 1.254 0 0 1-2.508 0Zm5.904 2.876c.49.49.49 1.284 0 1.773l-2.876 2.876h10.768a1.254 1.254 0 1 1 0 2.508H4.406l2.876 2.876a1.254 1.254 0 1 1-1.774 1.773L.49 13.653a1.254 1.254 0 0 1 0-1.774l5.017-5.016c.49-.49 1.284-.49 1.774 0Z"/>
    </symbol>
</svg>